<svg xmlns="http://www.w3.org/2000/svg" xmlns:xlink="http://www.w3.org/1999/xlink" version="1.1" width="256" height="256" viewBox="0 0 256 256" xml:space="preserve">

<defs>
</defs>
<g style="stroke: none; stroke-width: 0; stroke-dasharray: none; stroke-linecap: butt; stroke-linejoin: miter; stroke-miterlimit: 10; fill: none; fill-rule: nonzero; opacity: 1;" transform="translate(1.4065934065934016 1.4065934065934016) scale(2.81 2.81)" >
	<path d="M 72.56 61.61 H 29.648 c -5.396 0 -9.9 -3.871 -10.71 -9.206 L 13.54 16.877 c -0.175 -1.153 0.161 -2.324 0.921 -3.208 c 0.76 -0.884 1.867 -1.393 3.033 -1.393 h 64.735 c 2.355 0 4.557 1.05 6.038 2.88 c 1.482 1.831 2.051 4.202 1.561 6.506 l -6.673 31.369 C 82.097 58.003 77.641 61.61 72.56 61.61 z M 22.148 20.276 l 4.699 30.927 c 0.212 1.395 1.39 2.407 2.801 2.407 H 72.56 c 1.329 0 2.494 -0.943 2.771 -2.244 l 6.613 -31.09 H 22.148 z" style="stroke: none; stroke-width: 1; stroke-dasharray: none; stroke-linecap: butt; stroke-linejoin: miter; stroke-miterlimit: 10; fill: rgb(0,0,0); fill-rule: nonzero; opacity: 1;" transform=" matrix(1 0 0 1 0 0) " stroke-linecap="round" />
	<path d="M 17.489 20.276 c -1.977 0 -3.695 -1.465 -3.961 -3.478 l -0.57 -4.32 c -0.129 -0.98 -0.973 -1.719 -1.961 -1.719 H 4 c -2.209 0 -4 -1.791 -4 -4 s 1.791 -4 4 -4 h 6.997 c 4.987 0 9.24 3.729 9.893 8.673 l 0.57 4.321 c 0.289 2.19 -1.252 4.2 -3.443 4.489 C 17.84 20.265 17.663 20.276 17.489 20.276 z" style="stroke: none; stroke-width: 1; stroke-dasharray: none; stroke-linecap: butt; stroke-linejoin: miter; stroke-miterlimit: 10; fill: rgb(0,0,0); fill-rule: nonzero; opacity: 1;" transform=" matrix(1 0 0 1 0 0) " stroke-linecap="round" />
	<circle cx="27.55" cy="75.24" r="8" style="stroke: none; stroke-width: 1; stroke-dasharray: none; stroke-linecap: butt; stroke-linejoin: miter; stroke-miterlimit: 10; fill: rgb(0,0,0); fill-rule: nonzero; opacity: 1;" transform="  matrix(1 0 0 1 0 0) "/>
	<circle cx="72.73" cy="75.24" r="8" style="stroke: none; stroke-width: 1; stroke-dasharray: none; stroke-linecap: butt; stroke-linejoin: miter; stroke-miterlimit: 10; fill: rgb(0,0,0); fill-rule: nonzero; opacity: 1;" transform="  matrix(1 0 0 1 0 0) "/>
</g>
</svg>